<svg width="800" height="800" viewBox="0 0 800 800" fill="none" xmlns="http://www.w3.org/2000/svg">
  <rect width="800" height="800" rx="40" fill="#F5F1EE"/>
  <rect x="90" y="100" width="620" height="580" rx="20" fill="#F8F5F3"/>
  <path d="M120 180C180 140 280 130 360 170C450 214 530 222 640 170" stroke="#E8D2D7" stroke-width="6" stroke-linecap="round"/>
  <text x="220" y="320" fill="#2E2A2B" font-size="64" font-family="Georgia">PAST</text>
  <text x="370" y="390" fill="#2E2A2B" font-size="64" font-family="Georgia">CONTES</text>
  <g fill="#B98559">
    <circle cx="220" cy="430" r="34"/><circle cx="300" cy="470" r="34"/><circle cx="380" cy="440" r="34"/>
    <circle cx="460" cy="500" r="34"/><circle cx="540" cy="450" r="34"/><circle cx="250" cy="550" r="34"/>
    <circle cx="340" cy="590" r="34"/><circle cx="430" cy="570" r="34"/><circle cx="520" cy="610" r="34"/>
    <circle cx="180" cy="620" r="34"/><circle cx="600" cy="560" r="34"/>
  </g>
  <g fill="#5E3D2B">
    <circle cx="208" cy="420" r="5"/><circle cx="232" cy="420" r="5"/><circle cx="208" cy="442" r="5"/><circle cx="232" cy="442" r="5"/>
    <circle cx="288" cy="460" r="5"/><circle cx="312" cy="460" r="5"/><circle cx="288" cy="482" r="5"/><circle cx="312" cy="482" r="5"/>
    <circle cx="368" cy="430" r="5"/><circle cx="392" cy="430" r="5"/><circle cx="368" cy="452" r="5"/><circle cx="392" cy="452" r="5"/>
    <circle cx="448" cy="490" r="5"/><circle cx="472" cy="490" r="5"/><circle cx="448" cy="512" r="5"/><circle cx="472" cy="512" r="5"/>
    <circle cx="528" cy="440" r="5"/><circle cx="552" cy="440" r="5"/><circle cx="528" cy="462" r="5"/><circle cx="552" cy="462" r="5"/>
    <circle cx="238" cy="540" r="5"/><circle cx="262" cy="540" r="5"/><circle cx="238" cy="562" r="5"/><circle cx="262" cy="562" r="5"/>
    <circle cx="328" cy="580" r="5"/><circle cx="352" cy="580" r="5"/><circle cx="328" cy="602" r="5"/><circle cx="352" cy="602" r="5"/>
    <circle cx="418" cy="560" r="5"/><circle cx="442" cy="560" r="5"/><circle cx="418" cy="582" r="5"/><circle cx="442" cy="582" r="5"/>
    <circle cx="508" cy="600" r="5"/><circle cx="532" cy="600" r="5"/><circle cx="508" cy="622" r="5"/><circle cx="532" cy="622" r="5"/>
    <circle cx="168" cy="610" r="5"/><circle cx="192" cy="610" r="5"/><circle cx="168" cy="632" r="5"/><circle cx="192" cy="632" r="5"/>
    <circle cx="588" cy="550" r="5"/><circle cx="612" cy="550" r="5"/><circle cx="588" cy="572" r="5"/><circle cx="612" cy="572" r="5"/>
  </g>
  <circle cx="150" cy="170" r="34" fill="#F3F1C4"/>
  <circle cx="110" cy="130" r="24" fill="#F4D652"/>
  <circle cx="170" cy="120" r="18" fill="#E8E77A"/>
</svg>
