<svg width="800" height="800" viewBox="0 0 800 800" xmlns="http://www.w3.org/2000/svg">
  <rect width="800" height="800" rx="32" fill="#FCFBFA"/>
  <g transform="rotate(-26 400 400)">
    <rect x="220" y="360" width="360" height="80" rx="28" fill="#DD1D2B"/>
    <g stroke="#F14149" stroke-width="4">
      <line x1="248" y1="372" x2="248" y2="428"/><line x1="270" y1="372" x2="270" y2="428"/><line x1="292" y1="372" x2="292" y2="428"/>
      <line x1="314" y1="372" x2="314" y2="428"/><line x1="336" y1="372" x2="336" y2="428"/><line x1="358" y1="372" x2="358" y2="428"/>
      <line x1="380" y1="372" x2="380" y2="428"/><line x1="402" y1="372" x2="402" y2="428"/><line x1="424" y1="372" x2="424" y2="428"/>
      <line x1="446" y1="372" x2="446" y2="428"/><line x1="468" y1="372" x2="468" y2="428"/><line x1="490" y1="372" x2="490" y2="428"/>
      <line x1="512" y1="372" x2="512" y2="428"/><line x1="534" y1="372" x2="534" y2="428"/>
    </g>
  </g>
</svg>
