<svg width="800" height="1000" viewBox="0 0 800 1000" xmlns="http://www.w3.org/2000/svg">
  <rect width="800" height="1000" rx="40" fill="#F8F3EE"/>
  <circle cx="400" cy="280" r="120" fill="#C89A7A"/>
  <circle cx="310" cy="200" r="52" fill="#C89A7A"/>
  <circle cx="490" cy="200" r="52" fill="#C89A7A"/>
  <circle cx="400" cy="560" r="170" fill="#C89A7A"/>
  <circle cx="360" cy="270" r="18" fill="#33272A"/><circle cx="440" cy="270" r="18" fill="#33272A"/>
  <ellipse cx="400" cy="330" rx="55" ry="42" fill="#EED6C8"/>
  <circle cx="400" cy="320" r="12" fill="#33272A"/>
  <path d="M390 338C398 348 402 348 410 338" stroke="#33272A" stroke-width="6" stroke-linecap="round"/>
  <rect x="250" y="650" width="300" height="180" rx="30" fill="#E6DBD0"/>
  <rect x="280" y="680" width="240" height="120" rx="22" fill="#F8F3EE"/>
  <circle cx="300" cy="750" r="20" fill="#B15A68"/>
  <circle cx="360" cy="750" r="20" fill="#B15A68"/>
  <circle cx="420" cy="750" r="20" fill="#B15A68"/>
  <circle cx="480" cy="750" r="20" fill="#B15A68"/>
</svg>
