<svg width="800" height="1000" viewBox="0 0 800 1000" xmlns="http://www.w3.org/2000/svg">
  <rect width="800" height="1000" rx="40" fill="#F8F5F3"/>
  <rect x="540" y="120" width="150" height="700" rx="24" fill="#C18E73" opacity="0.28"/>
  <ellipse cx="350" cy="380" rx="120" ry="150" fill="#F7D9D8"/>
  <ellipse cx="300" cy="160" rx="34" ry="120" fill="#F7D9D8"/>
  <ellipse cx="400" cy="150" rx="34" ry="120" fill="#F7D9D8"/>
  <ellipse cx="300" cy="140" rx="16" ry="92" fill="#F1A7BC"/>
  <ellipse cx="400" cy="130" rx="16" ry="92" fill="#F1A7BC"/>
  <circle cx="350" cy="240" r="108" fill="#F8DDD8"/>
  <circle cx="310" cy="228" r="18" fill="#2E2A2B"/>
  <circle cx="390" cy="228" r="18" fill="#2E2A2B"/>
  <circle cx="316" cy="222" r="6" fill="white"/>
  <circle cx="396" cy="222" r="6" fill="white"/>
  <path d="M350 234L340 266" stroke="#2E2A2B" stroke-width="7" stroke-linecap="round"/>
  <path d="M330 278C340 286 360 286 370 278" stroke="#8B5460" stroke-width="6" stroke-linecap="round"/>
  <path d="M280 200C290 178 316 170 342 176" stroke="#6A4348" stroke-width="5" stroke-linecap="round"/>
  <path d="M420 200C410 178 384 170 358 176" stroke="#6A4348" stroke-width="5" stroke-linecap="round"/>
  <rect x="250" y="360" width="200" height="240" rx="90" fill="#D95F8B"/>
  <rect x="280" y="370" width="140" height="30" rx="15" fill="#F6D6D6"/>
  <circle cx="320" cy="390" r="18" fill="#F6B0C2"/>
  <circle cx="350" cy="386" r="18" fill="#F7C2CE"/>
  <circle cx="382" cy="390" r="18" fill="#F9BFD0"/>
  <path d="M275 520C310 550 390 550 425 520" stroke="#BF4C79" stroke-width="8" stroke-linecap="round"/>
  <path d="M230 430C190 450 170 510 190 570" stroke="#F7D9D8" stroke-width="28" stroke-linecap="round"/>
  <path d="M470 430C510 450 530 510 510 570" stroke="#F7D9D8" stroke-width="28" stroke-linecap="round"/>
  <path d="M310 595C290 680 280 770 290 850" stroke="#F7D9D8" stroke-width="36" stroke-linecap="round"/>
  <path d="M395 595C415 680 425 770 415 850" stroke="#F7D9D8" stroke-width="36" stroke-linecap="round"/>
  <path d="M275 120C290 115 304 125 312 145" stroke="#E14488" stroke-width="14" stroke-linecap="round"/>
  <path d="M355 120C340 115 326 125 318 145" stroke="#E14488" stroke-width="14" stroke-linecap="round"/>
  <circle cx="315" cy="118" r="24" fill="#E65994"/>
  <rect x="430" y="650" width="160" height="210" rx="26" fill="#F6C1CF"/>
  <rect x="455" y="680" width="110" height="130" rx="18" fill="#F8E8ED"/>
  <ellipse cx="510" cy="742" rx="36" ry="42" fill="#D9547A"/>
  <path d="M510 720C520 700 540 692 558 700C548 716 544 738 548 760" stroke="#6CA451" stroke-width="10" stroke-linecap="round"/>
  <circle cx="505" cy="745" r="5" fill="#FDE6B5"/><circle cx="520" cy="745" r="5" fill="#FDE6B5"/><circle cx="513" cy="760" r="5" fill="#FDE6B5"/>
  <circle cx="430" cy="870" r="48" fill="#CB2F46"/>
  <path d="M430 842C442 820 470 818 488 828C470 842 462 864 465 888" stroke="#5C853D" stroke-width="12" stroke-linecap="round"/>
</svg>
